# xmcd
#
# Track frame offsets: 
#        150
#        14320
#        27641
#        42172
#        57698
#        68581
#        83181
#        97455
#        112430
#        130410
#        144298
#        156894
#
# Disc length: 2236 seconds
#
# Revision: 0
# Processed by: cddbd v1.5.2PL0 Copyright (c) Steve Scherf et al.
# Submitted via: ExactAudioCopy v1.3
#
DISCID=b308ba0c
DTITLE=Homestake - Hello Stranger
DYEAR=2019
DGENRE=Country
TTITLE0=East Virginia Blues
TTITLE1=Hello City Limits
TTITLE2=Hello Stranger
TTITLE3=I'm Down to My Last Cigarette
TTITLE4=When the Mountain Dew Starts Falling
TTITLE5=Snow Deer Silver Bells Fiddle Medley
TTITLE6=If I Needed You
TTITLE7=I'm a Goin' Up
TTITLE8=Please Don't Wake Me
TTITLE9=Dim Lights, Thick Smoke (and Loud, Loud Music)
TTITLE10=Sweetest Love
TTITLE11=Who Will Sing for Me
EXTD=
EXTT0=
EXTT1=
EXTT2=
EXTT3=
EXTT4=
EXTT5=
EXTT6=
EXTT7=
EXTT8=
EXTT9=
EXTT10=
EXTT11=
PLAYORDER=
